<?xml version="1.0" standalone="no"?>
<!DOCTYPE svg PUBLIC "-//W3C//DTD SVG 20010904//EN"
 "http://www.w3.org/TR/2001/REC-SVG-20010904/DTD/svg10.dtd">
<svg version="1.0" xmlns="http://www.w3.org/2000/svg"
 width="256.000000pt" height="75.000000pt" viewBox="0 0 256.000000 75.000000"
 preserveAspectRatio="xMidYMid meet">

<g transform="translate(0.000000,75.000000) scale(0.100000,-0.100000)"
fill="#000000" stroke="none">
<path d="M555 734 c-66 -26 -82 -27 -131 -10 -127 43 -246 -9 -336 -148 -125
-194 -103 -452 44 -527 59 -30 128 -23 217 24 96 50 146 50 237 1 126 -70 250
-55 310 35 126 191 13 540 -201 620 -66 25 -86 25 -140 5z m-141 -38 c28 -11
35 -22 45 -62 14 -57 60 -105 145 -154 111 -63 146 -107 146 -181 0 -24 -10
-63 -21 -87 -24 -48 -89 -102 -125 -102 -20 0 -22 4 -22 53 1 67 -17 102 -97
187 -45 48 -67 81 -75 111 -13 48 -7 124 15 176 16 38 9 41 -45 13 -93 -47
-144 -173 -115 -285 18 -69 35 -96 102 -166 l54 -56 -85 -43 c-75 -37 -92 -42
-135 -38 -89 9 -143 71 -162 186 -26 162 80 382 214 442 50 23 115 25 161 6z"/>
<path d="M1405 641 c-3 -2 -5 -15 -5 -28 0 -20 5 -23 36 -23 32 0 35 2 32 27
-2 21 -8 27 -31 28 -15 0 -30 -1 -32 -4z"/>
<path d="M1530 571 c0 -44 -3 -51 -20 -51 -27 0 -27 -40 -1 -47 17 -4 19 -17
23 -140 3 -150 9 -163 75 -163 28 0 33 4 33 24 0 15 -7 26 -20 29 -19 5 -20
14 -20 126 0 114 1 121 20 121 15 0 20 7 20 25 0 18 -5 25 -19 25 -17 0 -20 8
-23 48 -3 45 -4 47 -35 50 l-33 3 0 -50z"/>
<path d="M1166 495 c-44 -30 -42 -30 -49 -5 -3 11 -10 20 -16 20 -8 0 -11 -70
-11 -230 0 -198 2 -230 15 -230 12 0 15 16 15 80 0 86 5 93 47 60 53 -41 137
-18 169 47 24 49 25 164 1 210 -39 73 -106 92 -171 48z m110 -20 c34 -23 47
-67 42 -149 -2 -56 -8 -80 -23 -96 -43 -47 -93 -45 -147 8 -26 24 -28 31 -28
108 0 81 0 82 35 113 40 35 86 41 121 16z"/>
<path d="M1402 348 l3 -173 30 0 30 0 3 173 2 172 -35 0 -35 0 2 -172z"/>
<path d="M1775 506 c-39 -17 -62 -43 -48 -57 7 -7 19 -3 36 15 37 37 97 36
127 -1 36 -46 24 -64 -58 -86 -97 -26 -132 -58 -132 -120 0 -37 5 -49 26 -66
34 -27 89 -27 132 -1 41 25 52 25 52 0 0 -11 7 -20 15 -20 13 0 15 22 15 141
0 77 -5 149 -10 160 -24 43 -97 60 -155 35z m135 -195 c0 -39 -5 -52 -28 -74
-51 -49 -129 -55 -146 -12 -20 54 19 105 97 125 23 6 47 12 52 14 19 6 25 -6
25 -53z"/>
<path d="M2085 504 c-16 -9 -38 -23 -47 -32 -17 -14 -18 -13 -18 11 0 17 -5
27 -15 27 -13 0 -15 -26 -15 -170 0 -144 2 -170 15 -170 13 0 15 21 15 129 l0
129 31 26 c55 47 122 47 139 0 6 -14 10 -84 10 -155 0 -111 2 -129 16 -129 23
0 17 301 -7 325 -24 24 -88 28 -124 9z"/>
<path d="M2354 511 c-60 -26 -83 -115 -45 -177 18 -29 18 -31 1 -42 -27 -17
-31 -50 -8 -71 19 -19 19 -19 -7 -45 -33 -33 -30 -71 8 -100 24 -17 43 -21
114 -21 83 0 85 1 114 33 34 38 36 60 9 95 -23 29 -74 47 -135 47 -64 0 -86
10 -83 34 3 18 10 21 48 22 25 1 55 2 68 3 13 0 37 15 54 32 30 29 30 33 26
99 -5 64 -4 69 15 72 11 2 22 9 25 17 4 11 -2 12 -24 7 -35 -9 -55 -9 -114 -2
-25 3 -55 2 -66 -3z m114 -43 c32 -31 31 -100 -3 -133 -53 -54 -145 -14 -145
64 0 88 85 127 148 69z m11 -281 c46 -16 57 -49 28 -82 -46 -54 -197 -37 -205
22 -2 14 6 32 22 48 20 20 35 25 73 24 26 0 63 -5 82 -12z"/>
<path d="M1845 110 c-3 -5 -1 -10 4 -10 6 0 11 5 11 10 0 6 -2 10 -4 10 -3 0
-8 -4 -11 -10z"/>
<path d="M2183 113 c9 -2 25 -2 35 0 9 3 1 5 -18 5 -19 0 -27 -2 -17 -5z"/>
<path d="M2143 75 c0 -22 2 -30 4 -17 2 12 2 30 0 40 -3 9 -5 -1 -4 -23z"/>
<path d="M1826 65 c-9 -26 -7 -32 5 -12 6 10 9 21 6 23 -2 3 -7 -2 -11 -11z"/>
<path d="M1901 64 c0 -11 3 -14 6 -6 3 7 2 16 -1 19 -3 4 -6 -2 -5 -13z"/>
<path d="M1865 60 c3 -5 8 -10 11 -10 2 0 4 5 4 10 0 6 -5 10 -11 10 -5 0 -7
-4 -4 -10z"/>
<path d="M1952 40 c0 -14 2 -19 5 -12 2 6 2 18 0 25 -3 6 -5 1 -5 -13z"/>
</g>
</svg>
