<?xml version="1.0" standalone="no"?>
<!DOCTYPE svg PUBLIC "-//W3C//DTD SVG 20010904//EN"
 "http://www.w3.org/TR/2001/REC-SVG-20010904/DTD/svg10.dtd">
<svg version="1.0" xmlns="http://www.w3.org/2000/svg"
 width="250.000000pt" height="250.000000pt" viewBox="0 0 250.000000 250.000000"
 preserveAspectRatio="xMidYMid meet">

<g transform="translate(0.000000,250.000000) scale(0.100000,-0.100000)"
fill="#000000" stroke="none">
<path d="M10 1250 l0 -1250 1245 0 1245 0 0 1250 0 1250 -1245 0 -1245 0 0
-1250z m2370 0 l0 -1130 -1125 0 -1125 0 0 1130 0 1130 1125 0 1125 0 0 -1130z"/>
<path d="M170 1250 l0 -1100 1085 0 1085 0 0 1100 0 1100 -1085 0 -1085 0 0
-1100z m995 539 c68 -26 114 -24 188 7 293 124 647 -246 647 -675 0 -206 -67
-344 -200 -413 -38 -19 -59 -23 -140 -23 -109 1 -176 21 -275 83 -57 35 -64
37 -145 37 -74 0 -92 -4 -135 -28 -158 -86 -175 -92 -265 -92 -72 0 -92 4
-136 27 -238 125 -269 537 -64 850 137 208 340 296 525 227z"/>
<path d="M959 1736 c-111 -30 -240 -151 -308 -289 -126 -255 -101 -545 55
-657 46 -33 53 -35 131 -35 81 0 84 1 196 59 l113 58 -81 82 c-173 173 -215
362 -124 553 34 72 115 151 183 179 25 11 46 22 46 26 0 11 -99 38 -134 37
-17 0 -52 -6 -77 -13z"/>
<path d="M1169 1603 c-14 -45 -21 -95 -21 -148 -1 -112 19 -152 129 -262 48
-48 102 -113 118 -143 26 -49 30 -65 30 -137 l0 -83 28 0 c42 0 79 23 135 84
102 112 113 252 28 353 -15 18 -78 64 -139 102 -188 117 -250 178 -263 263 -4
21 -10 38 -15 38 -4 0 -18 -30 -30 -67z"/>
</g>
</svg>
